<?xml version="1.0" encoding="utf-8"?>
<!-- Generator: Adobe Illustrator 16.0.0, SVG Export Plug-In . SVG Version: 6.00 Build 0)  -->
<!DOCTYPE svg PUBLIC "-//W3C//DTD SVG 1.0//EN" "http://www.w3.org/TR/2001/REC-SVG-20010904/DTD/svg10.dtd">
<svg version="1.0" id="Layer_1" xmlns="http://www.w3.org/2000/svg" xmlns:xlink="http://www.w3.org/1999/xlink" x="0px" y="0px"
	 width="276px" height="90px" viewBox="0 0 276 90" enable-background="new 0 0 276 90" xml:space="preserve">
<g>
	<path fill="#FFFFFF" d="M122.604,24.901c-0.204,0-0.392-0.051-0.565-0.153s-0.369-0.239-0.588-0.412l-0.047-0.023
		c-0.298-0.298-0.683-0.628-1.154-0.989c-0.471-0.361-0.997-0.698-1.578-1.012s-1.205-0.581-1.872-0.801
		c-0.667-0.219-1.346-0.33-2.037-0.33c-0.879,0-1.657,0.098-2.331,0.294c-0.675,0.196-1.24,0.463-1.695,0.801
		c-0.456,0.337-0.801,0.734-1.036,1.189c-0.235,0.456-0.353,0.942-0.353,1.46c0,0.565,0.176,1.06,0.53,1.483
		c0.353,0.424,0.832,0.8,1.436,1.13s1.299,0.632,2.084,0.907c0.785,0.275,1.609,0.545,2.472,0.812
		c0.989,0.298,1.97,0.621,2.943,0.965c0.973,0.346,1.903,0.734,2.79,1.166c0.887,0.432,1.715,0.911,2.484,1.437
		c0.769,0.526,1.433,1.13,1.99,1.813c0.557,0.683,0.997,1.444,1.319,2.284c0.321,0.84,0.482,1.786,0.482,2.837
		c0,1.711-0.345,3.258-1.036,4.639c-0.691,1.381-1.645,2.563-2.861,3.543c-1.216,0.981-2.645,1.734-4.285,2.261
		c-1.641,0.526-3.402,0.789-5.286,0.789c-1.209,0-2.41-0.142-3.603-0.425c-1.193-0.281-2.339-0.683-3.438-1.2
		c-1.099-0.519-2.139-1.142-3.12-1.871s-1.856-1.55-2.625-2.461v0.023l-0.047-0.094c-0.345-0.392-0.518-0.753-0.518-1.083
		c0-0.172,0.047-0.337,0.142-0.494c0.095-0.157,0.235-0.33,0.424-0.518l0.777-0.777c0.235-0.204,0.486-0.431,0.753-0.683
		c0.267-0.251,0.534-0.479,0.801-0.683s0.514-0.376,0.742-0.518c0.227-0.142,0.412-0.212,0.553-0.212c0.22,0,0.424,0.07,0.612,0.212
		c0.188,0.141,0.345,0.274,0.471,0.4l0.094,0.094h-0.023c0.549,0.518,1.166,1.013,1.848,1.483c0.683,0.471,1.385,0.891,2.107,1.26
		c0.722,0.369,1.44,0.659,2.154,0.871c0.714,0.212,1.385,0.318,2.013,0.318c0.863,0,1.672-0.109,2.425-0.33
		c0.753-0.22,1.405-0.53,1.955-0.93c0.549-0.4,0.98-0.883,1.295-1.448c0.314-0.565,0.471-1.193,0.471-1.884
		c0-0.69-0.204-1.283-0.612-1.778c-0.409-0.494-0.942-0.926-1.602-1.295c-0.659-0.369-1.401-0.687-2.225-0.954
		c-0.824-0.267-1.652-0.518-2.484-0.753c-1.916-0.581-3.591-1.208-5.027-1.884c-1.437-0.675-2.634-1.432-3.591-2.272
		c-0.958-0.84-1.676-1.781-2.154-2.826c-0.479-1.043-0.718-2.217-0.718-3.52c0-1.46,0.294-2.79,0.883-3.991
		c0.589-1.201,1.424-2.229,2.508-3.084c1.083-0.855,2.386-1.522,3.909-2.001c1.522-0.479,3.226-0.718,5.109-0.718
		c1.428,0,2.88,0.224,4.356,0.671c1.475,0.447,2.841,1.063,4.097,1.848c0.377,0.236,0.761,0.503,1.154,0.801
		c0.392,0.298,0.753,0.601,1.083,0.907c0.33,0.306,0.601,0.604,0.813,0.895s0.318,0.538,0.318,0.742
		c0,0.188-0.047,0.381-0.141,0.577c-0.094,0.197-0.212,0.373-0.354,0.53l-0.706,0.753v-0.023c-0.235,0.251-0.479,0.51-0.73,0.777
		s-0.502,0.506-0.753,0.718s-0.479,0.389-0.683,0.53C122.918,24.831,122.746,24.901,122.604,24.901z"/>
	<path fill="#FFFFFF" d="M151.494,42.702c0.268-0.172,0.49-0.278,0.672-0.318c0.18-0.039,0.333-0.059,0.459-0.059
		c0.268,0.016,0.494,0.157,0.684,0.424l0.564,0.777l1.672,2.378c0.078,0.109,0.141,0.224,0.188,0.342
		c0.049,0.117,0.072,0.225,0.072,0.316c0,0.252-0.088,0.477-0.26,0.672c-0.174,0.197-0.4,0.396-0.684,0.601
		c-1.334,0.974-2.774,1.759-4.32,2.354c-1.546,0.597-3.246,0.896-5.098,0.896c-1.396,0-2.752-0.187-4.063-0.554
		c-1.313-0.369-2.535-0.887-3.673-1.555c-1.138-0.666-2.178-1.468-3.12-2.4c-0.942-0.936-1.754-1.975-2.437-3.121
		s-1.209-2.378-1.578-3.697c-0.369-1.318-0.553-2.692-0.553-4.12c0-1.428,0.184-2.802,0.553-4.121
		c0.369-1.319,0.895-2.551,1.578-3.697s1.495-2.186,2.437-3.12c0.942-0.934,1.981-1.734,3.12-2.401
		c1.138-0.667,2.362-1.185,3.673-1.554s2.665-0.553,4.063-0.553c1.742,0,3.391,0.267,4.945,0.8c1.553,0.534,2.934,1.256,4.144,2.167
		l-0.023-0.023c0.22,0.22,0.437,0.412,0.647,0.577c0.212,0.165,0.318,0.42,0.318,0.765c0,0.094-0.004,0.205-0.013,0.33
		c-0.009,0.126-0.052,0.244-0.13,0.354l-1.932,2.943c-0.313,0.471-0.659,0.706-1.035,0.706c-0.268,0-0.565-0.133-0.896-0.4
		c-0.8-0.674-1.734-1.224-2.801-1.648c-1.068-0.424-2.167-0.636-3.297-0.636c-1.225,0-2.375,0.255-3.449,0.765
		c-1.076,0.51-2.021,1.201-2.838,2.072c-0.816,0.871-1.459,1.883-1.931,3.037c-0.471,1.154-0.706,2.367-0.706,3.638
		c0,1.303,0.235,2.527,0.706,3.673c0.471,1.146,1.11,2.143,1.919,2.99c0.809,0.847,1.754,1.519,2.838,2.013
		c1.082,0.495,2.236,0.742,3.461,0.742c1.334,0,2.488-0.231,3.461-0.694C149.805,43.9,150.693,43.346,151.494,42.702z"/>
	<path fill="#FFFFFF" d="M165.691,23.724c0.393-0.502,0.841-0.965,1.344-1.389c0.502-0.424,1.078-0.792,1.73-1.106
		c0.649-0.314,1.393-0.557,2.225-0.73s1.773-0.259,2.826-0.259c1.772,0,3.344,0.342,4.709,1.024
		c1.365,0.682,2.512,1.609,3.438,2.778c0.926,1.17,1.629,2.54,2.107,4.109c0.479,1.57,0.719,3.234,0.719,4.992v15.705
		c0,0.565-0.135,0.989-0.4,1.271c-0.268,0.281-0.652,0.424-1.154,0.424h-3.58c-0.627,0-1.047-0.118-1.26-0.354
		c-0.211-0.235-0.315-0.65-0.315-1.248V33.143c0-0.832-0.146-1.64-0.437-2.425c-0.291-0.785-0.707-1.479-1.248-2.083
		c-0.543-0.604-1.196-1.091-1.967-1.46c-0.77-0.369-1.625-0.553-2.566-0.553c-0.723,0-1.443,0.137-2.166,0.412
		c-0.723,0.275-1.377,0.671-1.967,1.189c-0.588,0.518-1.069,1.153-1.446,1.907c-0.378,0.753-0.573,1.609-0.589,2.566V48.07
		c0,0.299-0.017,0.597-0.047,0.896c-0.032,0.298-0.1,0.563-0.201,0.8c-0.103,0.235-0.246,0.424-0.436,0.565s-0.432,0.212-0.73,0.212
		h-3.885c-0.518,0-0.897-0.121-1.142-0.365c-0.243-0.242-0.364-0.592-0.364-1.048V13.152c0-0.408,0.125-0.746,0.377-1.013
		c0.25-0.267,0.619-0.4,1.105-0.4h3.885c0.361,0,0.691,0.138,0.989,0.412c0.298,0.275,0.446,0.601,0.446,0.977V23.724
		L165.691,23.724z"/>
	<path fill="#FFFFFF" d="M187.919,35.639c0-1.428,0.185-2.806,0.554-4.132c0.368-1.327,0.891-2.563,1.564-3.708
		c0.674-1.146,1.482-2.186,2.423-3.12c0.94-0.934,1.983-1.734,3.129-2.401s2.373-1.185,3.683-1.554
		c1.311-0.369,2.679-0.553,4.105-0.553c1.412,0,2.775,0.185,4.094,0.553c1.317,0.369,2.545,0.887,3.682,1.554
		c1.139,0.667,2.178,1.468,3.119,2.401c0.94,0.934,1.748,1.974,2.422,3.12c0.676,1.146,1.197,2.382,1.565,3.708
		c0.368,1.327,0.554,2.704,0.554,4.132c0,1.428-0.186,2.802-0.554,4.12c-0.368,1.319-0.891,2.547-1.565,3.685
		c-0.674,1.138-1.48,2.178-2.422,3.121c-0.941,0.941-1.98,1.746-3.119,2.414c-1.137,0.666-2.363,1.185-3.682,1.554
		c-1.316,0.368-2.682,0.554-4.094,0.554c-1.428,0-2.796-0.186-4.105-0.554c-1.31-0.369-2.537-0.888-3.683-1.554
		c-1.146-0.668-2.188-1.473-3.129-2.414s-1.749-1.981-2.423-3.121c-0.676-1.138-1.196-2.366-1.564-3.685
		C188.104,38.44,187.919,37.067,187.919,35.639z M194.561,35.639c0,1.256,0.219,2.445,0.658,3.567
		c0.439,1.123,1.051,2.1,1.836,2.932s1.715,1.491,2.791,1.978c1.074,0.487,2.248,0.73,3.521,0.73c1.239,0,2.39-0.243,3.448-0.73
		c1.061-0.486,1.976-1.146,2.744-1.978c0.77-0.832,1.368-1.809,1.801-2.932c0.433-1.122,0.647-2.311,0.647-3.567
		c0-1.24-0.216-2.425-0.647-3.556c-0.433-1.13-1.031-2.123-1.801-2.979c-0.77-0.855-1.685-1.538-2.744-2.048
		c-1.059-0.51-2.209-0.766-3.448-0.766c-1.271,0-2.445,0.255-3.521,0.766c-1.076,0.51-2.006,1.193-2.791,2.048
		c-0.785,0.856-1.396,1.848-1.836,2.979C194.779,33.214,194.561,34.398,194.561,35.639z"/>
	<path fill="#FFFFFF" d="M221.236,35.639c0-1.428,0.185-2.806,0.554-4.132c0.368-1.327,0.89-2.563,1.563-3.708
		c0.674-1.146,1.482-2.186,2.424-3.12c0.94-0.934,1.983-1.734,3.129-2.401s2.373-1.185,3.683-1.554
		c1.31-0.369,2.679-0.553,4.104-0.553c1.412,0,2.777,0.185,4.095,0.553c1.317,0.369,2.545,0.887,3.683,1.554
		c1.137,0.667,2.176,1.468,3.117,2.401c0.941,0.934,1.748,1.974,2.423,3.12s1.196,2.382,1.565,3.708
		c0.367,1.327,0.553,2.704,0.553,4.132c0,1.428-0.186,2.802-0.553,4.12c-0.369,1.319-0.891,2.547-1.565,3.685
		c-0.675,1.138-1.481,2.178-2.423,3.121c-0.941,0.941-1.98,1.746-3.117,2.414c-1.138,0.666-2.365,1.185-3.683,1.554
		c-1.317,0.368-2.683,0.554-4.095,0.554c-1.428,0-2.795-0.186-4.104-0.554c-1.31-0.369-2.537-0.888-3.683-1.554
		c-1.146-0.668-2.188-1.473-3.129-2.414s-1.75-1.981-2.424-3.121c-0.674-1.138-1.195-2.366-1.563-3.685
		C221.421,38.44,221.236,37.067,221.236,35.639z M227.877,35.639c0,1.256,0.221,2.445,0.659,3.567
		c0.438,1.123,1.051,2.1,1.836,2.932s1.715,1.491,2.791,1.978c1.073,0.487,2.248,0.73,3.521,0.73c1.239,0,2.39-0.243,3.448-0.73
		c1.06-0.486,1.976-1.146,2.743-1.978c0.77-0.832,1.369-1.809,1.802-2.932c0.433-1.122,0.647-2.311,0.647-3.567
		c0-1.24-0.217-2.425-0.647-3.556c-0.433-1.13-1.032-2.123-1.802-2.979c-0.77-0.855-1.684-1.538-2.743-2.048
		c-1.059-0.51-2.209-0.766-3.448-0.766c-1.271,0-2.445,0.255-3.521,0.766c-1.076,0.51-2.006,1.193-2.791,2.048
		c-0.785,0.856-1.396,1.848-1.836,2.979S227.877,34.398,227.877,35.639z"/>
	<path fill="#FFFFFF" d="M255.662,13.176c0-0.408,0.109-0.746,0.329-1.013s0.557-0.4,1.013-0.4h4.12c0.313,0,0.608,0.134,0.883,0.4
		c0.274,0.267,0.412,0.604,0.412,1.013V49.13c0,0.472-0.129,0.824-0.388,1.06c-0.26,0.235-0.609,0.354-1.049,0.354h-3.933
		c-0.503,0-0.858-0.118-1.071-0.354c-0.211-0.235-0.316-0.588-0.316-1.06V13.176L255.662,13.176z"/>
	<path fill="#FFFFFF" d="M112.291,61.258c0.083,0.049,0.153,0.108,0.209,0.178c0.056,0.07,0.084,0.154,0.084,0.252
		c0,0.076-0.021,0.158-0.063,0.24l-1.016,1.729c-0.119,0.161-0.245,0.241-0.377,0.241c-0.042,0-0.091-0.01-0.146-0.026
		c-0.056-0.019-0.112-0.044-0.168-0.078c-0.44-0.313-0.911-0.56-1.414-0.733c-0.502-0.175-1.037-0.262-1.603-0.262
		c-0.712,0-1.365,0.135-1.958,0.403c-0.594,0.269-1.107,0.633-1.54,1.094c-0.433,0.461-0.77,1.002-1.011,1.624
		c-0.241,0.621-0.361,1.288-0.361,2c0,0.706,0.12,1.367,0.361,1.984c0.241,0.619,0.578,1.158,1.011,1.619
		c0.433,0.461,0.946,0.824,1.54,1.088c0.593,0.267,1.247,0.398,1.958,0.398c0.566,0,1.105-0.087,1.619-0.262
		c0.513-0.175,0.986-0.419,1.419-0.732c0.056-0.043,0.113-0.07,0.173-0.084c0.059-0.015,0.11-0.024,0.152-0.031
		c0.119,0,0.241,0.076,0.367,0.229l1.037,1.749c0.042,0.084,0.063,0.161,0.063,0.23c0,0.098-0.03,0.179-0.089,0.24
		c-0.06,0.063-0.127,0.123-0.204,0.178c-0.657,0.44-1.364,0.781-2.121,1.021c-0.758,0.241-1.556,0.361-2.394,0.361
		c-0.74,0-1.451-0.096-2.131-0.283s-1.318-0.457-1.912-0.807c-0.593-0.35-1.133-0.766-1.618-1.252
		c-0.485-0.484-0.902-1.022-1.251-1.612c-0.35-0.59-0.618-1.226-0.807-1.906c-0.189-0.68-0.283-1.392-0.283-2.132
		c0-0.738,0.094-1.45,0.283-2.131c0.189-0.682,0.457-1.32,0.807-1.917c0.349-0.597,0.766-1.14,1.251-1.629
		c0.485-0.488,1.025-0.906,1.618-1.252c0.594-0.345,1.231-0.614,1.912-0.806c0.681-0.192,1.391-0.289,2.131-0.289
		c0.831,0,1.62,0.117,2.367,0.352S111.634,60.816,112.291,61.258z"/>
	<path fill="#FFFFFF" d="M113.861,69.051c0-0.636,0.082-1.248,0.246-1.839c0.164-0.59,0.396-1.14,0.696-1.649
		c0.3-0.508,0.66-0.972,1.078-1.388c0.418-0.415,0.883-0.771,1.392-1.067c0.509-0.297,1.055-0.527,1.638-0.691
		s1.191-0.246,1.827-0.246c0.628,0,1.235,0.082,1.821,0.246s1.132,0.395,1.638,0.691c0.506,0.295,0.968,0.652,1.387,1.067
		c0.418,0.416,0.778,0.878,1.078,1.388c0.3,0.511,0.532,1.061,0.696,1.649c0.164,0.591,0.246,1.203,0.246,1.839
		c0,0.635-0.082,1.246-0.246,1.833s-0.396,1.134-0.696,1.64c-0.3,0.506-0.659,0.969-1.078,1.388s-0.881,0.776-1.387,1.073
		c-0.506,0.298-1.052,0.527-1.638,0.691s-1.193,0.246-1.821,0.246c-0.635,0-1.244-0.082-1.827-0.246s-1.128-0.395-1.638-0.691
		c-0.51-0.295-0.974-0.654-1.392-1.073s-0.778-0.882-1.078-1.388c-0.3-0.506-0.532-1.053-0.696-1.64S113.861,69.686,113.861,69.051z
		 M116.815,69.051c0,0.559,0.098,1.088,0.293,1.588c0.195,0.498,0.468,0.934,0.817,1.303c0.349,0.371,0.763,0.664,1.241,0.881
		s1,0.324,1.566,0.324c0.551,0,1.063-0.107,1.534-0.324c0.472-0.217,0.878-0.51,1.22-0.881c0.342-0.369,0.609-0.805,0.801-1.303
		c0.192-0.5,0.288-1.029,0.288-1.588c0-0.552-0.096-1.078-0.288-1.582c-0.192-0.503-0.459-0.943-0.801-1.324
		c-0.342-0.381-0.749-0.685-1.22-0.912c-0.471-0.227-0.983-0.34-1.534-0.34c-0.566,0-1.088,0.113-1.566,0.34
		c-0.479,0.229-0.892,0.531-1.241,0.912c-0.349,0.381-0.622,0.821-0.817,1.324C116.913,67.973,116.815,68.499,116.815,69.051z"/>
	<path fill="#FFFFFF" d="M129.3,62.684c0.083-0.113,0.164-0.183,0.241-0.211c0.056-0.056,0.14-0.084,0.251-0.089
		c0.111-0.004,0.216-0.005,0.314-0.005h1.058c0.202,0,0.353,0.066,0.45,0.198c0.098,0.133,0.164,0.278,0.199,0.44l0.115,1.109
		c0.161-0.236,0.357-0.473,0.592-0.702c0.234-0.229,0.511-0.437,0.833-0.618c0.322-0.181,0.688-0.328,1.1-0.438
		c0.412-0.111,0.876-0.168,1.393-0.168c0.824,0,1.557,0.147,2.2,0.444c0.644,0.297,1.185,0.705,1.624,1.222s0.773,1.124,1,1.821
		c0.227,0.699,0.34,1.449,0.34,2.252v6.986c0,0.251-0.059,0.439-0.178,0.565s-0.289,0.188-0.514,0.188h-1.592
		c-0.28,0-0.466-0.054-0.561-0.158c-0.095-0.104-0.142-0.289-0.142-0.555V67.99c0-0.369-0.063-0.73-0.188-1.084
		s-0.309-0.668-0.55-0.947c-0.241-0.279-0.54-0.503-0.896-0.671c-0.356-0.167-0.768-0.251-1.236-0.251c-0.321,0-0.655,0.064-1,0.193
		c-0.346,0.129-0.662,0.313-0.948,0.55c-0.287,0.237-0.524,0.524-0.712,0.864c-0.188,0.338-0.286,0.722-0.293,1.146v6.787
		c0,0.133-0.007,0.266-0.021,0.396c-0.014,0.133-0.044,0.252-0.089,0.356s-0.11,0.188-0.194,0.251
		c-0.083,0.063-0.192,0.096-0.325,0.096h-1.728c-0.23,0-0.4-0.055-0.508-0.162c-0.108-0.108-0.163-0.265-0.163-0.468V62.996
		C129.174,62.898,129.216,62.794,129.3,62.684z"/>
	<path fill="#FFFFFF" d="M142.707,62.684c0.084-0.113,0.164-0.183,0.24-0.211c0.057-0.056,0.141-0.084,0.252-0.089
		c0.111-0.004,0.217-0.005,0.314-0.005h1.057c0.203,0,0.354,0.066,0.451,0.198c0.098,0.133,0.164,0.278,0.199,0.44l0.114,1.109
		c0.16-0.236,0.356-0.473,0.592-0.702s0.513-0.437,0.832-0.618c0.322-0.182,0.688-0.328,1.101-0.438
		c0.412-0.111,0.877-0.168,1.394-0.168c0.824,0,1.558,0.147,2.2,0.444s1.184,0.705,1.623,1.222s0.773,1.124,1,1.821
		c0.227,0.699,0.341,1.449,0.341,2.252v6.986c0,0.251-0.06,0.439-0.179,0.565c-0.118,0.126-0.289,0.188-0.514,0.188h-1.592
		c-0.279,0-0.466-0.054-0.561-0.158c-0.096-0.104-0.143-0.289-0.143-0.555V67.99c0-0.369-0.063-0.73-0.188-1.084
		c-0.126-0.354-0.311-0.668-0.551-0.947c-0.239-0.279-0.539-0.503-0.896-0.671c-0.356-0.167-0.769-0.251-1.235-0.251
		c-0.322,0-0.654,0.064-1,0.193c-0.347,0.129-0.662,0.313-0.949,0.55c-0.285,0.237-0.522,0.524-0.711,0.864
		c-0.189,0.338-0.287,0.722-0.295,1.146v6.787c0,0.133-0.006,0.266-0.02,0.396c-0.016,0.133-0.045,0.252-0.09,0.356
		s-0.109,0.188-0.193,0.251s-0.191,0.096-0.324,0.096h-1.729c-0.23,0-0.4-0.055-0.508-0.162c-0.109-0.108-0.163-0.265-0.163-0.468
		V62.996C142.581,62.898,142.623,62.794,142.707,62.684z"/>
	<path fill="#FFFFFF" d="M166.859,74.214c-0.613,0.524-1.286,0.937-2.017,1.236c-0.729,0.3-1.53,0.45-2.403,0.45
		c-0.942,0-1.836-0.178-2.682-0.534c-0.845-0.355-1.585-0.845-2.221-1.466c-0.637-0.623-1.141-1.351-1.514-2.186
		c-0.375-0.834-0.561-1.732-0.561-2.695c0-0.623,0.076-1.224,0.23-1.803c0.151-0.58,0.371-1.123,0.654-1.629
		c0.281-0.506,0.627-0.971,1.03-1.395c0.404-0.422,0.856-0.782,1.356-1.084c0.498-0.299,1.039-0.531,1.623-0.695
		c0.582-0.164,1.199-0.246,1.849-0.246c0.53,0,1.055,0.064,1.571,0.193c0.517,0.13,1.007,0.313,1.472,0.551s0.899,0.525,1.306,0.863
		c0.403,0.339,0.76,0.722,1.067,1.146c0.418,0.587,0.726,1.219,0.922,1.896c0.194,0.678,0.293,1.429,0.293,2.252
		c0,0.203-0.01,0.371-0.026,0.508c-0.018,0.137-0.062,0.246-0.131,0.33c-0.068,0.084-0.175,0.146-0.313,0.184
		c-0.14,0.038-0.335,0.059-0.587,0.059h-9.291c0.092,0.502,0.265,0.947,0.52,1.334c0.256,0.389,0.557,0.717,0.906,0.986
		c0.35,0.269,0.729,0.471,1.141,0.606s0.824,0.204,1.236,0.204c0.314,0,0.617-0.031,0.906-0.096c0.289-0.063,0.561-0.146,0.813-0.25
		c0.25-0.104,0.482-0.227,0.695-0.361c0.213-0.137,0.4-0.277,0.561-0.426c0-0.006,0.004-0.01,0.012-0.01
		c0.084-0.076,0.164-0.138,0.24-0.184c0.076-0.045,0.156-0.068,0.24-0.068c0.063,0,0.135,0.021,0.215,0.063s0.159,0.11,0.236,0.209
		c0.188,0.229,0.35,0.423,0.48,0.575c0.133,0.154,0.242,0.283,0.326,0.389s0.145,0.195,0.183,0.271
		c0.038,0.078,0.058,0.153,0.058,0.23C167.258,73.823,167.125,74.02,166.859,74.214z M162.209,64.768
		c-0.412,0-0.813,0.074-1.204,0.226c-0.392,0.149-0.749,0.354-1.073,0.612c-0.324,0.259-0.606,0.563-0.849,0.91
		c-0.241,0.351-0.417,0.728-0.528,1.133h7.416c-0.113-0.428-0.281-0.815-0.509-1.168c-0.228-0.354-0.501-0.656-0.821-0.912
		c-0.322-0.254-0.688-0.451-1.102-0.592C163.126,64.837,162.684,64.768,162.209,64.768z"/>
	<path fill="#FFFFFF" d="M179.43,72.191c0.118-0.075,0.219-0.123,0.299-0.141s0.147-0.025,0.203-0.025
		c0.119,0.007,0.221,0.068,0.305,0.188l0.252,0.346l0.742,1.059c0.035,0.049,0.063,0.1,0.084,0.152
		c0.021,0.051,0.031,0.099,0.031,0.141c0,0.111-0.037,0.212-0.115,0.299c-0.076,0.088-0.178,0.178-0.304,0.268
		c-0.594,0.434-1.233,0.781-1.922,1.047c-0.688,0.267-1.442,0.398-2.269,0.398c-0.621,0-1.223-0.082-1.807-0.246
		c-0.582-0.164-1.128-0.395-1.634-0.691c-0.507-0.297-0.969-0.652-1.39-1.067c-0.418-0.416-0.778-0.878-1.084-1.388
		c-0.303-0.51-0.536-1.059-0.7-1.646s-0.246-1.198-0.246-1.833c0-0.636,0.082-1.246,0.246-1.833s0.397-1.135,0.7-1.645
		c0.306-0.511,0.666-0.974,1.084-1.388c0.421-0.416,0.883-0.771,1.39-1.068c0.506-0.297,1.052-0.527,1.634-0.691
		c0.584-0.164,1.186-0.246,1.807-0.246c0.775,0,1.509,0.118,2.199,0.355c0.691,0.238,1.307,0.561,1.844,0.964l-0.01-0.011
		c0.098,0.099,0.193,0.184,0.287,0.257c0.096,0.073,0.143,0.188,0.143,0.341c0,0.042-0.002,0.091-0.006,0.146
		s-0.022,0.107-0.058,0.156l-0.858,1.311c-0.141,0.209-0.293,0.313-0.461,0.313c-0.119,0-0.252-0.059-0.397-0.178
		c-0.356-0.3-0.771-0.545-1.247-0.732c-0.475-0.188-0.963-0.283-1.466-0.283c-0.545,0-1.058,0.113-1.534,0.341
		c-0.479,0.228-0.898,0.534-1.263,0.922s-0.649,0.838-0.858,1.353c-0.21,0.512-0.314,1.053-0.314,1.617
		c0,0.579,0.104,1.124,0.314,1.635c0.209,0.51,0.493,0.953,0.854,1.33c0.359,0.377,0.781,0.676,1.263,0.896s0.995,0.33,1.54,0.33
		c0.593,0,1.105-0.103,1.539-0.31C178.68,72.727,179.073,72.479,179.43,72.191z"/>
	<path fill="#FFFFFF" d="M187.494,75.682c-0.553-0.008-1.069-0.092-1.555-0.252s-0.908-0.394-1.269-0.697
		c-0.358-0.305-0.646-0.678-0.854-1.121c-0.209-0.444-0.313-0.949-0.313-1.516v-1.729v-5.349H182.3
		c-0.202,0-0.354-0.045-0.456-0.135c-0.102-0.091-0.152-0.24-0.152-0.449v-1.502c0-0.201,0.052-0.345,0.152-0.428
		c0.102-0.084,0.254-0.125,0.456-0.125h1.204c0-0.37,0.002-0.738,0.005-1.105c0.005-0.365,0.007-0.733,0.007-1.104
		c0-0.14,0.043-0.249,0.131-0.329c0.086-0.08,0.222-0.152,0.402-0.215c0.118-0.042,0.262-0.093,0.43-0.152
		c0.168-0.059,0.34-0.115,0.519-0.173c0.179-0.056,0.353-0.103,0.519-0.142c0.168-0.038,0.309-0.059,0.42-0.059
		c0.217,0,0.357,0.061,0.424,0.18c0.066,0.117,0.101,0.275,0.101,0.471c0,0.439-0.002,0.879-0.006,1.314
		c-0.003,0.437-0.005,0.875-0.005,1.314h1.508c0.182,0,0.32,0.047,0.419,0.141c0.099,0.095,0.147,0.242,0.147,0.443v1.43
		c0,0.223-0.051,0.383-0.147,0.479s-0.237,0.146-0.419,0.146h-1.508c0,0.455,0,0.84,0,1.154s0,0.594,0,0.834
		c0,0.241,0.002,0.467,0.005,0.676c0.004,0.211,0.006,0.438,0.006,0.683c0,0.245,0,0.524,0,0.839s0,0.699,0,1.154
		c0,0.014-0.002,0.026-0.006,0.041c-0.003,0.015-0.005,0.027-0.005,0.043v1.373c0,0.461,0.091,0.793,0.271,0.996
		c0.182,0.203,0.475,0.305,0.881,0.305c0.146,0,0.262,0.053,0.346,0.156c0.082,0.104,0.125,0.23,0.125,0.377v1.457
		c0,0.182-0.051,0.322-0.151,0.424C187.816,75.63,187.676,75.682,187.494,75.682z"/>
	<path fill="#FFFFFF" d="M195.12,67.919c0-0.731,0.094-1.44,0.282-2.126c0.188-0.686,0.457-1.322,0.807-1.917
		c0.35-0.593,0.768-1.135,1.252-1.623c0.484-0.489,1.023-0.905,1.618-1.252c0.594-0.347,1.229-0.614,1.911-0.808
		c0.682-0.19,1.392-0.287,2.132-0.287c0.733,0,1.44,0.097,2.121,0.287c0.681,0.192,1.317,0.461,1.911,0.808s1.135,0.763,1.623,1.252
		c0.488,0.488,0.906,1.03,1.252,1.623c0.346,0.595,0.615,1.231,0.807,1.917s0.288,1.396,0.288,2.137
		c0,0.741-0.097,1.449-0.288,2.127s-0.461,1.313-0.807,1.905c-0.346,0.595-0.764,1.134-1.252,1.619s-1.029,0.899-1.623,1.246
		c-0.594,0.346-1.23,0.612-1.911,0.801s-1.392,0.283-2.132,0.283s-1.45-0.095-2.131-0.283c-0.682-0.188-1.318-0.457-1.912-0.806
		c-0.594-0.35-1.133-0.768-1.618-1.252c-0.485-0.485-0.9-1.023-1.246-1.613c-0.347-0.59-0.613-1.227-0.802-1.906
		C195.213,69.371,195.12,68.659,195.12,67.919z M198.146,67.898c0,0.705,0.127,1.365,0.383,1.979
		c0.255,0.614,0.604,1.148,1.047,1.604s0.968,0.813,1.57,1.078c0.604,0.267,1.26,0.397,1.965,0.397c0.697,0,1.35-0.132,1.953-0.397
		c0.604-0.266,1.129-0.625,1.576-1.078c0.446-0.455,0.799-0.988,1.053-1.604c0.256-0.615,0.383-1.273,0.383-1.979
		c0-0.698-0.127-1.354-0.383-1.969c-0.254-0.615-0.605-1.15-1.053-1.609c-0.447-0.456-0.973-0.817-1.576-1.084
		c-0.604-0.266-1.256-0.396-1.953-0.396c-0.705,0-1.359,0.133-1.965,0.396c-0.604,0.267-1.127,0.628-1.57,1.084
		c-0.443,0.459-0.792,0.994-1.047,1.609C198.273,66.544,198.146,67.2,198.146,67.898z"/>
	<path fill="#FFFFFF" d="M212.926,62.684c0.084-0.113,0.164-0.183,0.241-0.211c0.056-0.056,0.14-0.084,0.251-0.089
		c0.111-0.004,0.217-0.005,0.314-0.005h1.058c0.203,0,0.353,0.066,0.451,0.198c0.098,0.133,0.163,0.278,0.198,0.44l0.115,1.109
		c0.16-0.236,0.357-0.473,0.592-0.702c0.233-0.229,0.512-0.437,0.832-0.618c0.321-0.181,0.688-0.328,1.101-0.438
		c0.412-0.111,0.876-0.168,1.394-0.168c0.823,0,1.557,0.147,2.199,0.444s1.184,0.705,1.624,1.222c0.438,0.517,0.772,1.124,1,1.821
		c0.228,0.698,0.34,1.449,0.34,2.252v6.986c0,0.251-0.059,0.439-0.178,0.565s-0.29,0.188-0.513,0.188h-1.594
		c-0.279,0-0.466-0.054-0.561-0.158c-0.094-0.104-0.141-0.289-0.141-0.555V67.99c0-0.369-0.063-0.73-0.188-1.084
		c-0.126-0.354-0.31-0.668-0.551-0.947c-0.24-0.279-0.539-0.503-0.896-0.671c-0.355-0.167-0.769-0.251-1.236-0.251
		c-0.32,0-0.653,0.064-1,0.193c-0.346,0.129-0.661,0.313-0.947,0.55s-0.523,0.524-0.712,0.864c-0.188,0.338-0.287,0.722-0.294,1.146
		v6.787c0,0.133-0.008,0.266-0.021,0.396c-0.015,0.133-0.044,0.252-0.089,0.356c-0.046,0.104-0.11,0.188-0.194,0.251
		s-0.191,0.096-0.324,0.096h-1.729c-0.23,0-0.398-0.055-0.508-0.162c-0.109-0.108-0.162-0.265-0.162-0.468V62.996
		C212.801,62.898,212.842,62.794,212.926,62.684z"/>
	<path fill="#FFFFFF" d="M226.208,59.059c0-0.182,0.049-0.332,0.146-0.451c0.099-0.117,0.248-0.178,0.451-0.178h1.832
		c0.141,0,0.271,0.061,0.393,0.178c0.123,0.119,0.185,0.271,0.185,0.451v15.993c0,0.21-0.058,0.367-0.173,0.472
		c-0.115,0.105-0.271,0.158-0.466,0.158h-1.75c-0.224,0-0.382-0.054-0.478-0.158c-0.094-0.104-0.141-0.262-0.141-0.472
		L226.208,59.059L226.208,59.059z"/>
	<path fill="#FFFFFF" d="M231.318,58.38c0-0.421,0.205-0.631,0.617-0.631h1.76c0.195,0,0.354,0.053,0.473,0.157
		c0.118,0.104,0.178,0.264,0.178,0.474v1.565c0,0.162-0.056,0.313-0.166,0.457c-0.113,0.145-0.271,0.217-0.473,0.217h-1.76
		c-0.42,0-0.629-0.225-0.629-0.674V58.38L231.318,58.38z M231.318,63.018c0-0.182,0.053-0.334,0.156-0.455
		c0.105-0.123,0.26-0.184,0.461-0.184h1.739c0.076,0,0.155,0.016,0.235,0.047s0.152,0.077,0.215,0.137s0.115,0.127,0.157,0.203
		c0.042,0.077,0.063,0.161,0.063,0.252v12.034c0,0.419-0.221,0.63-0.66,0.63h-1.738c-0.42,0-0.629-0.211-0.629-0.63V63.018z"/>
	<path fill="#FFFFFF" d="M237.047,62.684c0.084-0.113,0.164-0.183,0.241-0.211c0.056-0.056,0.14-0.084,0.251-0.089
		c0.111-0.004,0.217-0.005,0.314-0.005h1.058c0.202,0,0.353,0.066,0.45,0.198c0.099,0.133,0.164,0.278,0.199,0.44l0.114,1.109
		c0.161-0.236,0.358-0.473,0.593-0.702c0.233-0.229,0.512-0.437,0.832-0.618c0.321-0.181,0.688-0.328,1.101-0.438
		c0.411-0.111,0.876-0.168,1.394-0.168c0.823,0,1.557,0.147,2.199,0.444s1.184,0.705,1.624,1.222c0.438,0.517,0.772,1.124,1,1.821
		c0.228,0.698,0.34,1.449,0.34,2.252v6.986c0,0.251-0.06,0.439-0.178,0.565c-0.119,0.126-0.29,0.188-0.513,0.188h-1.594
		c-0.279,0-0.466-0.054-0.561-0.158c-0.094-0.104-0.141-0.289-0.141-0.555V67.99c0-0.369-0.063-0.73-0.188-1.084
		c-0.126-0.354-0.31-0.668-0.551-0.947c-0.24-0.279-0.539-0.503-0.896-0.671c-0.354-0.167-0.768-0.251-1.235-0.251
		c-0.32,0-0.653,0.064-1,0.193c-0.346,0.129-0.662,0.313-0.947,0.55c-0.286,0.237-0.523,0.524-0.712,0.864
		c-0.189,0.338-0.287,0.722-0.294,1.146v6.787c0,0.133-0.008,0.266-0.021,0.396c-0.015,0.133-0.044,0.252-0.089,0.356
		c-0.046,0.104-0.11,0.188-0.194,0.251s-0.191,0.096-0.324,0.096h-1.729c-0.23,0-0.398-0.055-0.508-0.162
		c-0.109-0.108-0.162-0.265-0.162-0.468V62.996C236.922,62.898,236.963,62.794,237.047,62.684z"/>
	<path fill="#FFFFFF" d="M261.201,74.214c-0.615,0.524-1.287,0.937-2.018,1.236c-0.729,0.299-1.531,0.45-2.404,0.45
		c-0.941,0-1.836-0.178-2.68-0.534c-0.846-0.355-1.586-0.845-2.222-1.466c-0.636-0.623-1.14-1.351-1.515-2.186
		c-0.372-0.834-0.561-1.732-0.561-2.695c0-0.623,0.077-1.224,0.23-1.803c0.152-0.58,0.371-1.123,0.654-1.629
		s0.627-0.971,1.031-1.395c0.405-0.422,0.857-0.782,1.356-1.084c0.499-0.299,1.04-0.531,1.623-0.695s1.2-0.246,1.85-0.246
		c0.53,0,1.054,0.064,1.57,0.193c0.517,0.13,1.008,0.313,1.472,0.551c0.465,0.236,0.898,0.525,1.305,0.863
		c0.404,0.339,0.762,0.722,1.068,1.146c0.419,0.587,0.727,1.219,0.921,1.896c0.196,0.678,0.294,1.429,0.294,2.252
		c0,0.203-0.009,0.371-0.025,0.508c-0.019,0.137-0.063,0.246-0.131,0.33c-0.07,0.084-0.176,0.146-0.314,0.184
		c-0.139,0.038-0.335,0.059-0.586,0.059h-9.291c0.091,0.502,0.264,0.947,0.52,1.334c0.254,0.389,0.557,0.717,0.905,0.986
		c0.349,0.269,0.729,0.471,1.142,0.606s0.823,0.204,1.235,0.204c0.313,0,0.616-0.031,0.906-0.096c0.29-0.063,0.562-0.146,0.812-0.25
		c0.252-0.104,0.483-0.227,0.697-0.361c0.213-0.137,0.398-0.277,0.561-0.426c0-0.006,0.004-0.01,0.011-0.01
		c0.084-0.076,0.163-0.138,0.241-0.184c0.076-0.045,0.156-0.068,0.24-0.068c0.063,0,0.135,0.021,0.215,0.063s0.158,0.11,0.235,0.209
		c0.188,0.229,0.349,0.423,0.481,0.575c0.132,0.154,0.24,0.283,0.324,0.389c0.084,0.104,0.146,0.195,0.184,0.271
		c0.038,0.078,0.059,0.153,0.059,0.23C261.6,73.823,261.466,74.02,261.201,74.214z M256.551,64.768
		c-0.412,0-0.814,0.074-1.205,0.226c-0.391,0.149-0.748,0.354-1.072,0.612c-0.325,0.259-0.607,0.563-0.85,0.91
		c-0.24,0.351-0.417,0.728-0.529,1.133h7.416c-0.11-0.428-0.281-0.815-0.508-1.168c-0.228-0.354-0.501-0.656-0.822-0.912
		c-0.32-0.254-0.688-0.451-1.1-0.592C257.469,64.837,257.025,64.768,256.551,64.768z"/>
</g>
<path opacity="0.9" fill="#FFFFFF" d="M86.945,77.373c0,3.957-3.208,7.165-7.165,7.165H16.2c-3.957,0-7.165-3.208-7.165-7.165
	V13.792c0-3.957,3.208-7.165,7.165-7.165h63.581c3.957,0,7.165,3.208,7.165,7.165L86.945,77.373L86.945,77.373z"/>
<g>
	<line fill="none" stroke="#0C7796" stroke-width="3.7959" stroke-miterlimit="10" x1="48" y1="47.428" x2="48" y2="27.041"/>
	<line fill="none" stroke="#0C7796" stroke-width="3.7959" stroke-miterlimit="10" x1="48" y1="47.074" x2="67.2" y2="66.273"/>
	<line fill="none" stroke="#0C7796" stroke-width="3.7959" stroke-miterlimit="10" x1="48" y1="47.045" x2="28.799" y2="66.245"/>
</g>
<g>
	<path fill="#0C7796" d="M45.667,19.592c0.093,0.077,0.212,0.18,0.358,0.309c0.145,0.129,0.311,0.256,0.498,0.382
		c0.279,0.187,0.556,0.332,0.831,0.436c0.274,0.104,0.562,0.156,0.863,0.156c0.28,0,0.514-0.032,0.704-0.095
		c0.189-0.063,0.338-0.146,0.448-0.25c0.109-0.104,0.188-0.225,0.234-0.362c0.047-0.137,0.07-0.282,0.07-0.436
		c0-0.169-0.065-0.321-0.193-0.456c-0.129-0.134-0.287-0.253-0.473-0.357s-0.381-0.193-0.584-0.267
		c-0.203-0.074-0.378-0.136-0.526-0.186c-0.658-0.229-1.234-0.478-1.728-0.743c-0.493-0.266-0.905-0.562-1.233-0.888
		c-0.329-0.326-0.576-0.685-0.74-1.076c-0.164-0.391-0.247-0.829-0.247-1.311c0-0.509,0.103-0.973,0.309-1.389
		s0.499-0.772,0.88-1.068c0.381-0.296,0.84-0.524,1.377-0.686c0.537-0.162,1.138-0.243,1.801-0.243c0.499,0,0.978,0.056,1.436,0.168
		c0.458,0.113,0.909,0.292,1.353,0.539c0.187,0.11,0.363,0.224,0.531,0.341c0.167,0.118,0.313,0.231,0.44,0.341
		c0.126,0.11,0.226,0.214,0.3,0.313c0.074,0.099,0.111,0.184,0.111,0.255s-0.018,0.137-0.053,0.197
		c-0.036,0.061-0.089,0.129-0.161,0.206l-1.258,1.34c-0.093,0.093-0.187,0.14-0.28,0.14c-0.077,0-0.146-0.022-0.209-0.065
		c-0.063-0.044-0.133-0.099-0.21-0.165l-0.074-0.065c-0.11-0.093-0.232-0.189-0.366-0.288c-0.134-0.099-0.278-0.188-0.432-0.268
		c-0.154-0.08-0.315-0.146-0.485-0.197c-0.17-0.052-0.342-0.079-0.518-0.079c-0.181,0-0.351,0.016-0.51,0.045
		c-0.159,0.03-0.299,0.079-0.419,0.144c-0.121,0.066-0.217,0.152-0.288,0.259c-0.071,0.107-0.107,0.237-0.107,0.391
		c0,0.154,0.039,0.287,0.115,0.398c0.077,0.113,0.192,0.217,0.346,0.313c0.153,0.096,0.344,0.186,0.571,0.271
		c0.228,0.085,0.492,0.177,0.794,0.275c0.581,0.192,1.117,0.394,1.608,0.604c0.49,0.211,0.914,0.46,1.271,0.749
		c0.356,0.288,0.634,0.632,0.834,1.032c0.2,0.4,0.3,0.886,0.3,1.456c0,0.603-0.123,1.15-0.37,1.641
		c-0.247,0.491-0.585,0.909-1.016,1.254c-0.43,0.346-0.936,0.613-1.518,0.802c-0.581,0.189-1.206,0.284-1.875,0.284
		c-0.63,0-1.25-0.113-1.858-0.338c-0.609-0.225-1.176-0.527-1.703-0.907c-0.219-0.16-0.404-0.316-0.555-0.47
		s-0.27-0.277-0.358-0.371l-0.024-0.025c-0.005-0.011-0.011-0.018-0.017-0.021c-0.005-0.002-0.011-0.007-0.017-0.012
		c-0.005-0.011-0.011-0.018-0.016-0.021c-0.006-0.003-0.011-0.007-0.017-0.012c-0.126-0.138-0.189-0.248-0.189-0.33
		c0-0.094,0.063-0.198,0.189-0.313l1.423-1.357c0.115-0.083,0.208-0.124,0.28-0.124c0.049,0,0.101,0.017,0.156,0.049
		C45.524,19.477,45.59,19.526,45.667,19.592z"/>
</g>
<g>
	<path fill="#0C7796" d="M25.309,68.334c0.093,0.055,0.162,0.126,0.206,0.214s0.036,0.192-0.025,0.313l-1.39,1.974
		c-0.061,0.095-0.125,0.146-0.193,0.16c-0.069,0.014-0.152-0.009-0.251-0.069c-0.269-0.203-0.565-0.359-0.888-0.469
		c-0.324-0.109-0.666-0.165-1.028-0.165c-0.45,0-0.864,0.086-1.242,0.256s-0.705,0.402-0.979,0.698s-0.488,0.643-0.642,1.037
		c-0.153,0.395-0.23,0.816-0.23,1.267c0,0.449,0.077,0.87,0.23,1.263s0.367,0.734,0.642,1.027c0.274,0.293,0.6,0.525,0.979,0.695
		s0.792,0.255,1.242,0.255c0.362,0,0.707-0.058,1.036-0.169c0.329-0.112,0.628-0.27,0.896-0.473
		c0.099-0.062,0.181-0.086,0.247-0.074c0.066,0.011,0.132,0.061,0.198,0.146l1.406,2.023c0.06,0.121,0.068,0.222,0.024,0.305
		c-0.044,0.082-0.112,0.15-0.206,0.205c-0.515,0.346-1.07,0.613-1.666,0.803c-0.595,0.188-1.221,0.283-1.879,0.283
		c-0.582,0-1.139-0.074-1.674-0.222s-1.035-0.359-1.501-0.634c-0.466-0.275-0.89-0.603-1.271-0.982
		c-0.381-0.381-0.708-0.804-0.982-1.268c-0.274-0.463-0.485-0.963-0.633-1.496c-0.148-0.534-0.222-1.094-0.222-1.674
		c0-0.582,0.074-1.14,0.222-1.674c0.148-0.535,0.359-1.037,0.633-1.506c0.274-0.469,0.602-0.895,0.982-1.277
		c0.381-0.385,0.805-0.713,1.271-0.983c0.466-0.271,0.966-0.481,1.501-0.633s1.092-0.228,1.674-0.228
		c0.658,0,1.279,0.092,1.863,0.275C24.243,67.725,24.793,67.988,25.309,68.334z"/>
</g>
<g>
	<path fill="#0C7796" d="M68.633,73.564c0-0.582,0.074-1.14,0.222-1.674c0.148-0.535,0.359-1.037,0.634-1.506
		c0.275-0.469,0.602-0.895,0.983-1.277c0.381-0.383,0.805-0.713,1.271-0.983c0.466-0.271,0.967-0.481,1.502-0.633
		c0.535-0.151,1.093-0.228,1.675-0.228c0.576,0,1.133,0.075,1.671,0.228c0.538,0.149,1.04,0.36,1.506,0.633
		c0.466,0.272,0.892,0.601,1.276,0.983c0.384,0.384,0.712,0.81,0.983,1.277c0.271,0.469,0.483,0.971,0.634,1.506
		c0.151,0.534,0.226,1.092,0.226,1.674c0,0.58-0.075,1.14-0.226,1.674c-0.151,0.533-0.362,1.033-0.634,1.496
		c-0.271,0.464-0.6,0.887-0.983,1.268c-0.384,0.381-0.81,0.708-1.276,0.982c-0.466,0.273-0.968,0.484-1.506,0.634
		c-0.538,0.147-1.095,0.222-1.671,0.222c-0.582,0-1.14-0.074-1.675-0.222c-0.535-0.147-1.036-0.359-1.502-0.634
		c-0.466-0.275-0.89-0.603-1.271-0.982c-0.381-0.38-0.709-0.804-0.983-1.268c-0.274-0.463-0.485-0.963-0.634-1.496
		C68.708,74.704,68.633,74.146,68.633,73.564z M71.816,73.557c0,0.455,0.077,0.881,0.23,1.274c0.153,0.394,0.368,0.739,0.645,1.032
		c0.277,0.294,0.604,0.522,0.981,0.689c0.378,0.168,0.794,0.252,1.249,0.252s0.872-0.084,1.252-0.252
		c0.381-0.167,0.709-0.396,0.986-0.689c0.276-0.293,0.491-0.639,0.645-1.032c0.153-0.396,0.23-0.819,0.23-1.274
		c0-0.449-0.077-0.873-0.23-1.271c-0.154-0.396-0.369-0.744-0.645-1.04c-0.276-0.296-0.605-0.528-0.986-0.698
		c-0.38-0.17-0.798-0.256-1.252-0.256s-0.871,0.086-1.249,0.256c-0.377,0.17-0.705,0.402-0.981,0.698s-0.491,0.645-0.645,1.04
		C71.893,72.684,71.816,73.107,71.816,73.557z"/>
</g>
</svg>
