<?xml version="1.0" encoding="utf-8"?>
<!-- Generator: Adobe Illustrator 16.0.0, SVG Export Plug-In . SVG Version: 6.00 Build 0)  -->
<!DOCTYPE svg PUBLIC "-//W3C//DTD SVG 1.0//EN" "http://www.w3.org/TR/2001/REC-SVG-20010904/DTD/svg10.dtd">
<svg version="1.0" id="Layer_1" xmlns="http://www.w3.org/2000/svg" xmlns:xlink="http://www.w3.org/1999/xlink" x="0px" y="0px"
	 width="276px" height="90px" viewBox="0 0 276 90" enable-background="new 0 0 276 90" xml:space="preserve">
<g>
	<path fill="#414042" d="M122.604,24.901c-0.204,0-0.392-0.051-0.565-0.153s-0.369-0.239-0.588-0.412l-0.047-0.023
		c-0.298-0.298-0.683-0.628-1.154-0.989c-0.471-0.361-0.997-0.698-1.578-1.012s-1.205-0.581-1.872-0.801
		c-0.667-0.219-1.346-0.33-2.037-0.33c-0.879,0-1.657,0.098-2.331,0.294c-0.675,0.196-1.24,0.463-1.695,0.801
		c-0.456,0.337-0.801,0.734-1.036,1.189c-0.235,0.456-0.353,0.942-0.353,1.46c0,0.565,0.176,1.06,0.53,1.483
		c0.353,0.424,0.832,0.8,1.436,1.13c0.604,0.33,1.299,0.632,2.084,0.907c0.785,0.275,1.609,0.545,2.472,0.812
		c0.989,0.298,1.97,0.621,2.943,0.965c0.973,0.346,1.903,0.734,2.79,1.166c0.887,0.432,1.715,0.911,2.484,1.437
		s1.433,1.13,1.99,1.813c0.557,0.683,0.997,1.444,1.319,2.284c0.321,0.84,0.482,1.786,0.482,2.837c0,1.711-0.345,3.258-1.036,4.639
		c-0.691,1.381-1.645,2.563-2.861,3.544s-2.645,1.734-4.285,2.26c-1.641,0.526-3.402,0.789-5.286,0.789
		c-1.209,0-2.41-0.142-3.603-0.424s-2.339-0.683-3.438-1.201c-1.099-0.518-2.139-1.142-3.12-1.871
		c-0.981-0.73-1.856-1.55-2.625-2.461v0.023l-0.047-0.094c-0.345-0.392-0.518-0.753-0.518-1.083c0-0.172,0.047-0.337,0.142-0.494
		s0.235-0.33,0.424-0.518l0.777-0.777c0.235-0.204,0.486-0.431,0.753-0.683c0.267-0.251,0.534-0.479,0.801-0.683
		c0.267-0.204,0.514-0.376,0.742-0.518c0.227-0.142,0.412-0.212,0.553-0.212c0.22,0,0.424,0.07,0.612,0.212
		c0.188,0.141,0.345,0.274,0.471,0.4l0.094,0.094h-0.023c0.549,0.518,1.166,1.013,1.848,1.483c0.683,0.471,1.385,0.891,2.107,1.26
		c0.722,0.369,1.44,0.659,2.154,0.871s1.385,0.318,2.013,0.318c0.863,0,1.672-0.109,2.425-0.33c0.753-0.22,1.405-0.53,1.955-0.93
		c0.549-0.4,0.98-0.883,1.295-1.448c0.314-0.565,0.471-1.193,0.471-1.884c0-0.69-0.204-1.283-0.612-1.778
		c-0.409-0.494-0.942-0.926-1.602-1.295c-0.659-0.369-1.401-0.687-2.225-0.954c-0.824-0.267-1.652-0.518-2.484-0.753
		c-1.916-0.581-3.591-1.208-5.027-1.884c-1.437-0.675-2.634-1.432-3.591-2.272c-0.958-0.84-1.676-1.781-2.154-2.826
		c-0.479-1.043-0.718-2.217-0.718-3.52c0-1.46,0.294-2.79,0.883-3.991c0.589-1.201,1.424-2.229,2.508-3.084
		c1.083-0.855,2.386-1.522,3.909-2.001c1.522-0.479,3.226-0.718,5.109-0.718c1.428,0,2.88,0.224,4.356,0.671
		c1.475,0.447,2.841,1.063,4.097,1.848c0.377,0.236,0.761,0.503,1.154,0.801c0.392,0.298,0.753,0.601,1.083,0.907
		c0.33,0.306,0.601,0.604,0.813,0.895s0.318,0.538,0.318,0.742c0,0.188-0.047,0.381-0.141,0.577
		c-0.094,0.197-0.212,0.373-0.354,0.53l-0.706,0.753v-0.023c-0.235,0.251-0.479,0.51-0.73,0.777
		c-0.251,0.267-0.502,0.506-0.753,0.718c-0.251,0.212-0.479,0.389-0.683,0.53C122.918,24.831,122.746,24.901,122.604,24.901z"/>
	<path fill="#414042" d="M151.494,42.702c0.268-0.172,0.491-0.278,0.672-0.318c0.18-0.039,0.333-0.059,0.459-0.059
		c0.267,0.016,0.494,0.157,0.683,0.424l0.565,0.777l1.672,2.378c0.078,0.11,0.141,0.224,0.188,0.342
		c0.048,0.117,0.071,0.224,0.071,0.317c0,0.251-0.087,0.476-0.259,0.671c-0.174,0.197-0.4,0.396-0.684,0.601
		c-1.334,0.974-2.774,1.759-4.32,2.354c-1.546,0.597-3.246,0.896-5.098,0.896c-1.396,0-2.751-0.186-4.062-0.554
		c-1.312-0.369-2.535-0.887-3.673-1.554s-2.178-1.468-3.12-2.401c-0.942-0.935-1.754-1.975-2.437-3.121
		c-0.683-1.146-1.209-2.378-1.578-3.697c-0.369-1.318-0.553-2.692-0.553-4.12s0.184-2.802,0.553-4.121
		c0.369-1.319,0.895-2.551,1.578-3.697c0.683-1.146,1.495-2.186,2.437-3.12c0.942-0.934,1.981-1.734,3.12-2.401
		c1.138-0.667,2.362-1.185,3.673-1.554c1.311-0.369,2.665-0.553,4.062-0.553c1.742,0,3.391,0.267,4.945,0.8
		c1.554,0.534,2.935,1.256,4.144,2.167l-0.023-0.023c0.22,0.22,0.436,0.412,0.647,0.577c0.212,0.165,0.318,0.42,0.318,0.765
		c0,0.094-0.004,0.205-0.012,0.33c-0.009,0.126-0.052,0.244-0.13,0.354l-1.931,2.943c-0.314,0.471-0.66,0.706-1.036,0.706
		c-0.267,0-0.565-0.133-0.896-0.4c-0.8-0.674-1.734-1.224-2.801-1.648c-1.068-0.424-2.167-0.636-3.297-0.636
		c-1.225,0-2.375,0.255-3.449,0.765c-1.076,0.51-2.021,1.201-2.838,2.072c-0.816,0.871-1.459,1.883-1.931,3.037
		c-0.471,1.154-0.706,2.367-0.706,3.638c0,1.303,0.235,2.527,0.706,3.673c0.471,1.146,1.11,2.143,1.919,2.99
		s1.754,1.519,2.838,2.013c1.082,0.495,2.236,0.742,3.461,0.742c1.334,0,2.488-0.231,3.461-0.694S150.694,43.346,151.494,42.702z"/>
	<path fill="#414042" d="M165.692,23.724c0.392-0.502,0.84-0.965,1.343-1.389c0.502-0.424,1.078-0.792,1.73-1.106
		c0.65-0.314,1.393-0.557,2.225-0.73s1.773-0.259,2.826-0.259c1.773,0,3.344,0.342,4.709,1.024s2.512,1.609,3.438,2.778
		c0.926,1.17,1.629,2.54,2.107,4.109c0.479,1.57,0.719,3.234,0.719,4.992v15.705c0,0.565-0.135,0.989-0.4,1.271
		c-0.268,0.282-0.652,0.424-1.154,0.424h-3.58c-0.627,0-1.047-0.118-1.26-0.354c-0.211-0.235-0.316-0.65-0.316-1.248V33.143
		c0-0.832-0.146-1.64-0.436-2.425c-0.291-0.785-0.707-1.479-1.248-2.083c-0.543-0.604-1.197-1.091-1.967-1.46
		s-1.625-0.553-2.566-0.553c-0.723,0-1.444,0.137-2.166,0.412c-0.723,0.275-1.377,0.671-1.967,1.189
		c-0.588,0.518-1.07,1.153-1.447,1.907c-0.377,0.753-0.573,1.609-0.589,2.566V48.07c0,0.299-0.016,0.597-0.047,0.896
		c-0.032,0.298-0.099,0.564-0.2,0.8c-0.103,0.235-0.247,0.424-0.436,0.565s-0.432,0.212-0.73,0.212h-3.885
		c-0.518,0-0.898-0.121-1.142-0.365c-0.243-0.243-0.365-0.592-0.365-1.048V13.152c0-0.408,0.126-0.746,0.377-1.013
		c0.251-0.267,0.62-0.4,1.106-0.4h3.885c0.361,0,0.691,0.138,0.989,0.412c0.298,0.275,0.447,0.601,0.447,0.977V23.724z"/>
	<path fill="#414042" d="M187.919,35.639c0-1.428,0.185-2.806,0.554-4.132c0.368-1.327,0.89-2.563,1.564-3.708
		c0.674-1.146,1.482-2.186,2.423-3.12c0.941-0.934,1.984-1.734,3.129-2.401c1.146-0.667,2.373-1.185,3.683-1.554
		c1.31-0.369,2.678-0.553,4.105-0.553c1.412,0,2.776,0.185,4.094,0.553c1.317,0.369,2.545,0.887,3.682,1.554
		c1.138,0.667,2.177,1.468,3.118,2.401c0.941,0.934,1.748,1.974,2.423,3.12s1.196,2.382,1.565,3.708
		c0.368,1.327,0.553,2.704,0.553,4.132s-0.185,2.802-0.553,4.12c-0.369,1.319-0.891,2.547-1.565,3.685
		c-0.675,1.138-1.481,2.178-2.423,3.12c-0.941,0.942-1.98,1.747-3.118,2.414c-1.137,0.667-2.364,1.185-3.682,1.554
		c-1.317,0.368-2.682,0.554-4.094,0.554c-1.428,0-2.796-0.186-4.105-0.554c-1.31-0.369-2.537-0.887-3.683-1.554
		c-1.145-0.667-2.188-1.472-3.129-2.414c-0.94-0.941-1.749-1.981-2.423-3.12c-0.675-1.138-1.196-2.366-1.564-3.685
		C188.104,38.44,187.919,37.067,187.919,35.639z M194.56,35.639c0,1.256,0.22,2.445,0.659,3.567c0.439,1.123,1.051,2.1,1.836,2.932
		s1.715,1.491,2.791,1.978c1.074,0.487,2.248,0.73,3.52,0.73c1.24,0,2.39-0.243,3.449-0.73c1.06-0.486,1.975-1.146,2.743-1.978
		c0.77-0.832,1.369-1.809,1.802-2.932c0.432-1.122,0.647-2.311,0.647-3.567c0-1.24-0.216-2.425-0.647-3.556
		c-0.433-1.13-1.032-2.123-1.802-2.979c-0.769-0.855-1.684-1.538-2.743-2.048s-2.209-0.766-3.449-0.766
		c-1.271,0-2.445,0.255-3.52,0.766c-1.076,0.51-2.006,1.193-2.791,2.048c-0.785,0.856-1.396,1.848-1.836,2.979
		S194.56,34.398,194.56,35.639z"/>
	<path fill="#414042" d="M221.236,35.639c0-1.428,0.185-2.806,0.554-4.132c0.368-1.327,0.89-2.563,1.564-3.708
		c0.674-1.146,1.482-2.186,2.423-3.12c0.941-0.934,1.984-1.734,3.129-2.401c1.146-0.667,2.373-1.185,3.683-1.554
		c1.31-0.369,2.678-0.553,4.105-0.553c1.412,0,2.776,0.185,4.094,0.553c1.317,0.369,2.545,0.887,3.682,1.554
		c1.138,0.667,2.177,1.468,3.118,2.401c0.941,0.934,1.748,1.974,2.423,3.12s1.196,2.382,1.565,3.708
		c0.368,1.327,0.553,2.704,0.553,4.132s-0.185,2.802-0.553,4.12c-0.369,1.319-0.891,2.547-1.565,3.685
		c-0.675,1.138-1.481,2.178-2.423,3.12c-0.941,0.942-1.98,1.747-3.118,2.414c-1.137,0.667-2.364,1.185-3.682,1.554
		c-1.317,0.368-2.682,0.554-4.094,0.554c-1.428,0-2.796-0.186-4.105-0.554c-1.31-0.369-2.537-0.887-3.683-1.554
		c-1.145-0.667-2.188-1.472-3.129-2.414c-0.94-0.941-1.749-1.981-2.423-3.12c-0.675-1.138-1.196-2.366-1.564-3.685
		C221.421,38.44,221.236,37.067,221.236,35.639z M227.877,35.639c0,1.256,0.22,2.445,0.659,3.567c0.439,1.123,1.051,2.1,1.836,2.932
		s1.715,1.491,2.791,1.978c1.074,0.487,2.248,0.73,3.52,0.73c1.24,0,2.39-0.243,3.449-0.73c1.06-0.486,1.975-1.146,2.743-1.978
		c0.77-0.832,1.369-1.809,1.802-2.932c0.432-1.122,0.647-2.311,0.647-3.567c0-1.24-0.216-2.425-0.647-3.556
		c-0.433-1.13-1.032-2.123-1.802-2.979c-0.769-0.855-1.684-1.538-2.743-2.048s-2.209-0.766-3.449-0.766
		c-1.271,0-2.445,0.255-3.52,0.766c-1.076,0.51-2.006,1.193-2.791,2.048c-0.785,0.856-1.396,1.848-1.836,2.979
		S227.877,34.398,227.877,35.639z"/>
	<path fill="#414042" d="M255.662,13.176c0-0.408,0.109-0.746,0.329-1.013c0.22-0.267,0.557-0.4,1.013-0.4h4.12
		c0.314,0,0.608,0.134,0.883,0.4c0.274,0.267,0.412,0.604,0.412,1.013V49.13c0,0.472-0.129,0.824-0.388,1.06
		c-0.26,0.235-0.609,0.354-1.048,0.354h-3.933c-0.503,0-0.859-0.118-1.071-0.354s-0.317-0.588-0.317-1.06V13.176z"/>
	<path fill="#414042" d="M112.291,61.258c0.083,0.049,0.153,0.108,0.209,0.178c0.056,0.07,0.084,0.154,0.084,0.252
		c0,0.076-0.021,0.157-0.063,0.24l-1.016,1.729c-0.119,0.161-0.245,0.241-0.377,0.241c-0.042,0-0.091-0.009-0.146-0.026
		c-0.056-0.018-0.112-0.044-0.168-0.078c-0.44-0.314-0.911-0.559-1.414-0.733c-0.502-0.175-1.037-0.262-1.603-0.262
		c-0.712,0-1.365,0.134-1.958,0.403c-0.594,0.269-1.107,0.633-1.54,1.094c-0.433,0.461-0.77,1.002-1.011,1.624
		c-0.241,0.621-0.361,1.288-0.361,2c0,0.706,0.12,1.367,0.361,1.985c0.241,0.618,0.578,1.157,1.011,1.618
		c0.433,0.461,0.946,0.824,1.54,1.089c0.593,0.266,1.247,0.398,1.958,0.398c0.566,0,1.105-0.087,1.619-0.262
		c0.513-0.175,0.986-0.419,1.419-0.733c0.056-0.042,0.113-0.069,0.173-0.084c0.059-0.014,0.11-0.024,0.152-0.031
		c0.119,0,0.241,0.077,0.367,0.23l1.037,1.749c0.042,0.084,0.063,0.161,0.063,0.23c0,0.098-0.03,0.179-0.089,0.241
		c-0.06,0.063-0.127,0.122-0.204,0.178c-0.657,0.44-1.364,0.78-2.121,1.021c-0.758,0.241-1.556,0.361-2.394,0.361
		c-0.74,0-1.451-0.095-2.131-0.283s-1.318-0.457-1.912-0.806c-0.593-0.35-1.133-0.767-1.618-1.252s-0.902-1.023-1.251-1.613
		c-0.35-0.59-0.618-1.226-0.807-1.906s-0.283-1.392-0.283-2.132c0-0.739,0.094-1.45,0.283-2.131s0.457-1.32,0.807-1.917
		c0.349-0.597,0.766-1.14,1.251-1.629c0.485-0.488,1.025-0.906,1.618-1.252c0.594-0.345,1.231-0.614,1.912-0.806
		c0.681-0.192,1.391-0.288,2.131-0.288c0.831,0,1.62,0.116,2.367,0.351S111.634,60.817,112.291,61.258z"/>
	<path fill="#414042" d="M113.861,69.051c0-0.636,0.082-1.248,0.246-1.839c0.164-0.59,0.396-1.14,0.696-1.649
		s0.66-0.972,1.078-1.388c0.418-0.415,0.883-0.771,1.392-1.068s1.055-0.527,1.638-0.691s1.191-0.246,1.827-0.246
		c0.628,0,1.235,0.082,1.821,0.246s1.132,0.395,1.638,0.691s0.968,0.653,1.387,1.068c0.418,0.416,0.778,0.878,1.078,1.388
		c0.3,0.51,0.532,1.06,0.696,1.649c0.164,0.591,0.246,1.203,0.246,1.839c0,0.635-0.082,1.246-0.246,1.833
		c-0.164,0.586-0.396,1.133-0.696,1.639c-0.3,0.507-0.659,0.969-1.078,1.388c-0.419,0.419-0.881,0.777-1.387,1.074
		s-1.052,0.527-1.638,0.691s-1.193,0.246-1.821,0.246c-0.635,0-1.244-0.082-1.827-0.246s-1.128-0.395-1.638-0.691
		s-0.974-0.655-1.392-1.074s-0.778-0.881-1.078-1.388c-0.3-0.506-0.532-1.053-0.696-1.639
		C113.943,70.297,113.861,69.686,113.861,69.051z M116.815,69.051c0,0.559,0.098,1.088,0.293,1.587
		c0.195,0.499,0.468,0.934,0.817,1.304s0.763,0.663,1.241,0.88c0.478,0.217,1,0.324,1.566,0.324c0.551,0,1.063-0.107,1.534-0.324
		c0.472-0.217,0.878-0.51,1.22-0.88c0.342-0.37,0.609-0.805,0.801-1.304c0.192-0.499,0.288-1.028,0.288-1.587
		c0-0.552-0.096-1.079-0.288-1.582c-0.192-0.503-0.459-0.944-0.801-1.325c-0.342-0.38-0.749-0.684-1.22-0.911
		c-0.471-0.227-0.983-0.34-1.534-0.34c-0.566,0-1.088,0.113-1.566,0.34c-0.479,0.228-0.892,0.531-1.241,0.911
		c-0.349,0.381-0.622,0.822-0.817,1.325C116.913,67.972,116.815,68.499,116.815,69.051z"/>
	<path fill="#414042" d="M129.3,62.683c0.083-0.112,0.164-0.182,0.241-0.21c0.056-0.056,0.14-0.085,0.251-0.089
		c0.111-0.004,0.216-0.005,0.314-0.005h1.058c0.202,0,0.353,0.066,0.45,0.198c0.098,0.133,0.164,0.279,0.199,0.44l0.115,1.11
		c0.161-0.237,0.357-0.472,0.592-0.702c0.234-0.23,0.511-0.437,0.833-0.618s0.688-0.328,1.1-0.439
		c0.412-0.111,0.876-0.168,1.393-0.168c0.824,0,1.557,0.148,2.2,0.445s1.184,0.704,1.624,1.221c0.439,0.517,0.773,1.124,1,1.822
		s0.34,1.449,0.34,2.252v6.986c0,0.251-0.059,0.439-0.178,0.565s-0.289,0.188-0.514,0.188h-1.591c-0.28,0-0.466-0.053-0.561-0.157
		s-0.142-0.29-0.142-0.555v-6.977c0-0.369-0.063-0.73-0.188-1.084c-0.125-0.353-0.309-0.668-0.55-0.947s-0.54-0.503-0.896-0.671
		c-0.356-0.167-0.768-0.251-1.236-0.251c-0.321,0-0.655,0.064-1,0.193c-0.346,0.13-0.662,0.313-0.948,0.55
		c-0.287,0.238-0.524,0.525-0.712,0.864s-0.286,0.722-0.293,1.147v6.787c0,0.133-0.007,0.266-0.021,0.397
		c-0.014,0.133-0.044,0.252-0.089,0.356s-0.11,0.188-0.194,0.251c-0.083,0.063-0.192,0.095-0.325,0.095h-1.728
		c-0.23,0-0.4-0.054-0.508-0.162c-0.108-0.108-0.163-0.264-0.163-0.467V62.996C129.174,62.898,129.216,62.794,129.3,62.683z"/>
	<path fill="#414042" d="M142.707,62.683c0.084-0.112,0.164-0.182,0.24-0.21c0.057-0.056,0.141-0.085,0.252-0.089
		s0.217-0.005,0.314-0.005h1.058c0.202,0,0.353,0.066,0.45,0.198c0.098,0.133,0.164,0.279,0.199,0.44l0.115,1.11
		c0.16-0.237,0.357-0.472,0.592-0.702s0.512-0.437,0.832-0.618c0.322-0.182,0.688-0.328,1.1-0.439
		c0.412-0.111,0.877-0.168,1.394-0.168c0.824,0,1.558,0.148,2.2,0.445s1.184,0.704,1.623,1.221s0.773,1.124,1,1.822
		s0.341,1.449,0.341,2.252v6.986c0,0.251-0.06,0.439-0.179,0.565c-0.118,0.126-0.289,0.188-0.513,0.188h-1.592
		c-0.28,0-0.466-0.053-0.561-0.157s-0.142-0.29-0.142-0.555v-6.977c0-0.369-0.063-0.73-0.188-1.084
		c-0.126-0.353-0.31-0.668-0.55-0.947s-0.539-0.503-0.896-0.671c-0.356-0.167-0.769-0.251-1.235-0.251
		c-0.322,0-0.655,0.064-1.001,0.193c-0.346,0.13-0.661,0.313-0.948,0.55c-0.286,0.238-0.523,0.525-0.712,0.864
		s-0.286,0.722-0.294,1.147v6.787c0,0.133-0.006,0.266-0.02,0.397c-0.015,0.133-0.045,0.252-0.09,0.356s-0.109,0.188-0.193,0.251
		c-0.084,0.063-0.192,0.095-0.325,0.095h-1.728c-0.23,0-0.4-0.054-0.508-0.162c-0.109-0.108-0.163-0.264-0.163-0.467V62.996
		C142.581,62.898,142.623,62.794,142.707,62.683z"/>
	<path fill="#414042" d="M166.859,74.214c-0.613,0.524-1.286,0.937-2.016,1.236c-0.73,0.3-1.531,0.45-2.404,0.45
		c-0.942,0-1.836-0.178-2.681-0.534c-0.845-0.355-1.585-0.845-2.221-1.466c-0.636-0.622-1.14-1.35-1.514-2.185
		c-0.374-0.834-0.56-1.733-0.56-2.696c0-0.622,0.076-1.223,0.23-1.802c0.152-0.58,0.371-1.123,0.654-1.629
		c0.282-0.506,0.627-0.971,1.031-1.394c0.404-0.422,0.857-0.783,1.356-1.084c0.499-0.3,1.04-0.532,1.624-0.696
		c0.582-0.164,1.199-0.246,1.848-0.246c0.531,0,1.055,0.064,1.572,0.193c0.516,0.13,1.006,0.313,1.471,0.551
		s0.899,0.525,1.305,0.863c0.404,0.339,0.761,0.722,1.068,1.147c0.418,0.587,0.726,1.219,0.922,1.896
		c0.195,0.678,0.293,1.429,0.293,2.252c0,0.203-0.01,0.372-0.026,0.508c-0.018,0.137-0.062,0.246-0.131,0.33
		s-0.175,0.146-0.314,0.184s-0.335,0.058-0.587,0.058h-9.29c0.091,0.503,0.264,0.948,0.519,1.335
		c0.255,0.388,0.557,0.716,0.906,0.985c0.349,0.269,0.729,0.471,1.141,0.607c0.412,0.136,0.824,0.204,1.236,0.204
		c0.314,0,0.617-0.031,0.906-0.095c0.289-0.063,0.561-0.146,0.813-0.251c0.25-0.104,0.482-0.226,0.695-0.361
		c0.213-0.137,0.4-0.277,0.561-0.425c0-0.007,0.004-0.01,0.011-0.01c0.084-0.077,0.164-0.138,0.241-0.184
		c0.076-0.045,0.156-0.068,0.24-0.068c0.063,0,0.135,0.021,0.215,0.063s0.159,0.111,0.236,0.209c0.188,0.23,0.349,0.423,0.481,0.576
		s0.241,0.283,0.325,0.388s0.145,0.195,0.183,0.272s0.058,0.153,0.058,0.23C167.258,73.823,167.125,74.019,166.859,74.214z
		 M162.209,64.767c-0.412,0-0.813,0.075-1.204,0.226c-0.392,0.149-0.749,0.354-1.073,0.612c-0.325,0.259-0.607,0.563-0.849,0.911
		c-0.241,0.35-0.417,0.727-0.528,1.132h7.415c-0.112-0.427-0.281-0.815-0.508-1.168c-0.228-0.353-0.501-0.656-0.822-0.911
		s-0.688-0.452-1.101-0.592S162.684,64.767,162.209,64.767z"/>
	<path fill="#414042" d="M179.429,72.192c0.119-0.076,0.219-0.123,0.299-0.141s0.148-0.026,0.204-0.026
		c0.119,0.007,0.221,0.069,0.304,0.188l0.252,0.346l0.743,1.058c0.035,0.049,0.063,0.1,0.084,0.152
		c0.021,0.052,0.031,0.099,0.031,0.141c0,0.112-0.038,0.212-0.115,0.299c-0.077,0.088-0.178,0.177-0.304,0.268
		c-0.594,0.433-1.234,0.781-1.922,1.047s-1.443,0.398-2.268,0.398c-0.622,0-1.224-0.082-1.807-0.246s-1.128-0.395-1.634-0.691
		c-0.507-0.297-0.969-0.653-1.389-1.068c-0.418-0.416-0.779-0.878-1.084-1.388c-0.303-0.51-0.537-1.059-0.701-1.645
		c-0.164-0.587-0.246-1.198-0.246-1.833c0-0.636,0.082-1.247,0.246-1.833c0.164-0.587,0.398-1.135,0.701-1.645
		c0.305-0.51,0.666-0.973,1.084-1.388c0.42-0.416,0.882-0.771,1.389-1.068c0.506-0.297,1.051-0.527,1.634-0.691
		s1.185-0.246,1.807-0.246c0.775,0,1.508,0.118,2.199,0.355c0.691,0.238,1.306,0.56,1.844,0.964l-0.011-0.011
		c0.098,0.099,0.194,0.184,0.288,0.257c0.095,0.073,0.142,0.188,0.142,0.341c0,0.042-0.002,0.091-0.005,0.146
		c-0.004,0.056-0.023,0.108-0.058,0.157l-0.859,1.31c-0.14,0.209-0.293,0.313-0.461,0.313c-0.118,0-0.251-0.059-0.397-0.178
		c-0.356-0.3-0.771-0.545-1.247-0.733c-0.475-0.188-0.963-0.282-1.466-0.282c-0.545,0-1.057,0.113-1.534,0.34
		c-0.479,0.228-0.899,0.534-1.263,0.922s-0.649,0.838-0.858,1.352c-0.21,0.513-0.314,1.053-0.314,1.618
		c0,0.579,0.104,1.124,0.314,1.634c0.209,0.51,0.493,0.953,0.854,1.33c0.359,0.377,0.78,0.676,1.262,0.896
		c0.482,0.22,0.995,0.33,1.54,0.33c0.593,0,1.106-0.103,1.539-0.309C178.679,72.726,179.073,72.479,179.429,72.192z"/>
	<path fill="#414042" d="M187.494,75.681c-0.552-0.007-1.069-0.091-1.555-0.252c-0.485-0.16-0.908-0.393-1.268-0.696
		c-0.359-0.305-0.645-0.679-0.854-1.122c-0.21-0.444-0.314-0.949-0.314-1.516v-1.729v-5.348H182.3c-0.203,0-0.354-0.045-0.456-0.135
		c-0.102-0.091-0.152-0.24-0.152-0.449v-1.502c0-0.202,0.051-0.345,0.152-0.428c0.102-0.084,0.253-0.125,0.456-0.125h1.204
		c0-0.37,0.002-0.739,0.005-1.105c0.004-0.366,0.006-0.734,0.006-1.105c0-0.139,0.043-0.249,0.131-0.329
		c0.087-0.08,0.222-0.152,0.403-0.215c0.118-0.042,0.262-0.093,0.429-0.152c0.168-0.059,0.341-0.116,0.519-0.173
		c0.179-0.056,0.352-0.103,0.519-0.142c0.168-0.038,0.308-0.058,0.419-0.058c0.217,0,0.358,0.06,0.425,0.179
		c0.066,0.118,0.1,0.275,0.1,0.471c0,0.44-0.002,0.879-0.006,1.315c-0.003,0.436-0.005,0.874-0.005,1.314h1.508
		c0.182,0,0.321,0.047,0.419,0.141s0.147,0.241,0.147,0.443v1.429c0,0.223-0.05,0.383-0.147,0.48s-0.237,0.146-0.419,0.146h-1.508
		c0,0.455,0,0.84,0,1.154s0,0.593,0,0.834s0.002,0.467,0.005,0.676c0.004,0.21,0.006,0.438,0.006,0.682c0,0.245,0,0.524,0,0.839
		c0,0.315,0,0.7,0,1.154c0,0.014-0.002,0.027-0.006,0.042c-0.003,0.014-0.005,0.027-0.005,0.042v1.374
		c0,0.461,0.091,0.793,0.272,0.996s0.475,0.304,0.88,0.304c0.146,0,0.262,0.053,0.346,0.157c0.083,0.104,0.125,0.23,0.125,0.377
		v1.456c0,0.182-0.051,0.323-0.151,0.424C187.817,75.63,187.676,75.681,187.494,75.681z"/>
	<path fill="#414042" d="M195.12,67.919c0-0.732,0.094-1.441,0.282-2.126s0.458-1.323,0.807-1.917
		c0.35-0.593,0.767-1.135,1.252-1.623c0.485-0.489,1.024-0.906,1.618-1.252s1.23-0.614,1.911-0.807
		c0.682-0.191,1.392-0.288,2.132-0.288c0.733,0,1.44,0.097,2.121,0.288c0.681,0.192,1.318,0.461,1.911,0.807
		c0.594,0.346,1.135,0.763,1.624,1.252c0.488,0.488,0.906,1.03,1.252,1.623c0.345,0.594,0.614,1.232,0.806,1.917
		c0.192,0.685,0.288,1.396,0.288,2.137s-0.096,1.449-0.288,2.126c-0.191,0.678-0.461,1.313-0.806,1.906
		c-0.346,0.594-0.764,1.134-1.252,1.619c-0.489,0.485-1.03,0.9-1.624,1.246c-0.593,0.346-1.23,0.612-1.911,0.801
		s-1.392,0.283-2.132,0.283s-1.45-0.095-2.131-0.283s-1.318-0.457-1.912-0.806c-0.594-0.35-1.133-0.767-1.618-1.252
		s-0.9-1.023-1.246-1.613s-0.613-1.226-0.802-1.906S195.12,68.659,195.12,67.919z M198.146,67.898c0,0.705,0.128,1.365,0.383,1.979
		s0.604,1.148,1.047,1.603s0.968,0.813,1.571,1.079c0.604,0.266,1.259,0.397,1.964,0.397c0.698,0,1.35-0.132,1.954-0.397
		c0.604-0.266,1.129-0.625,1.576-1.079c0.446-0.454,0.798-0.988,1.053-1.603s0.382-1.274,0.382-1.979
		c0-0.698-0.127-1.354-0.382-1.969c-0.255-0.615-0.606-1.15-1.053-1.608c-0.447-0.457-0.973-0.818-1.576-1.084
		c-0.604-0.266-1.256-0.397-1.954-0.397c-0.705,0-1.359,0.132-1.964,0.397c-0.604,0.266-1.128,0.627-1.571,1.084
		c-0.443,0.458-0.792,0.993-1.047,1.608C198.274,66.544,198.146,67.2,198.146,67.898z"/>
	<path fill="#414042" d="M212.926,62.683c0.084-0.112,0.164-0.182,0.241-0.21c0.056-0.056,0.14-0.085,0.251-0.089
		c0.112-0.004,0.217-0.005,0.314-0.005h1.058c0.203,0,0.353,0.066,0.451,0.198c0.098,0.133,0.164,0.279,0.198,0.44l0.115,1.11
		c0.161-0.237,0.358-0.472,0.592-0.702c0.234-0.23,0.512-0.437,0.833-0.618s0.688-0.328,1.1-0.439s0.876-0.168,1.394-0.168
		c0.823,0,1.557,0.148,2.199,0.445s1.184,0.704,1.624,1.221c0.439,0.517,0.772,1.124,1,1.822c0.227,0.698,0.34,1.449,0.34,2.252
		v6.986c0,0.251-0.059,0.439-0.178,0.565s-0.29,0.188-0.513,0.188h-1.593c-0.279,0-0.466-0.053-0.561-0.157
		c-0.094-0.104-0.141-0.29-0.141-0.555v-6.977c0-0.369-0.063-0.73-0.188-1.084c-0.126-0.353-0.31-0.668-0.551-0.947
		c-0.24-0.279-0.539-0.503-0.896-0.671c-0.355-0.167-0.768-0.251-1.235-0.251c-0.321,0-0.654,0.064-1,0.193
		c-0.346,0.13-0.662,0.313-0.948,0.55c-0.286,0.238-0.523,0.525-0.712,0.864s-0.287,0.722-0.294,1.147v6.787
		c0,0.133-0.007,0.266-0.021,0.397c-0.015,0.133-0.044,0.252-0.089,0.356c-0.046,0.104-0.11,0.188-0.194,0.251
		c-0.084,0.063-0.192,0.095-0.324,0.095h-1.729c-0.23,0-0.399-0.054-0.508-0.162s-0.162-0.264-0.162-0.467V62.996
		C212.801,62.898,212.842,62.794,212.926,62.683z"/>
	<path fill="#414042" d="M226.208,59.059c0-0.182,0.049-0.332,0.146-0.451c0.098-0.118,0.247-0.178,0.45-0.178h1.833
		c0.14,0,0.271,0.06,0.393,0.178c0.122,0.119,0.184,0.27,0.184,0.451v15.993c0,0.21-0.058,0.367-0.173,0.472
		s-0.271,0.157-0.466,0.157h-1.75c-0.224,0-0.382-0.053-0.477-0.157c-0.094-0.104-0.141-0.262-0.141-0.472V59.059z"/>
	<path fill="#414042" d="M231.319,58.38c0-0.421,0.205-0.631,0.617-0.631h1.76c0.195,0,0.353,0.053,0.472,0.157
		c0.118,0.105,0.178,0.264,0.178,0.474v1.566c0,0.161-0.056,0.313-0.167,0.457c-0.112,0.144-0.27,0.216-0.472,0.216h-1.76
		c-0.419,0-0.628-0.225-0.628-0.673V58.38z M231.319,63.018c0-0.182,0.052-0.334,0.156-0.456c0.105-0.122,0.259-0.183,0.461-0.183
		h1.739c0.076,0,0.155,0.016,0.235,0.047s0.152,0.077,0.215,0.136c0.063,0.06,0.115,0.128,0.157,0.204
		c0.042,0.077,0.063,0.161,0.063,0.252v12.034c0,0.419-0.22,0.629-0.659,0.629h-1.739c-0.419,0-0.628-0.21-0.628-0.629V63.018z"/>
	<path fill="#414042" d="M237.047,62.683c0.084-0.112,0.164-0.182,0.241-0.21c0.056-0.056,0.14-0.085,0.251-0.089
		c0.112-0.004,0.217-0.005,0.314-0.005h1.058c0.203,0,0.353,0.066,0.451,0.198c0.098,0.133,0.164,0.279,0.198,0.44l0.115,1.11
		c0.161-0.237,0.358-0.472,0.592-0.702c0.234-0.23,0.512-0.437,0.833-0.618s0.688-0.328,1.1-0.439s0.876-0.168,1.394-0.168
		c0.823,0,1.557,0.148,2.199,0.445s1.184,0.704,1.624,1.221c0.439,0.517,0.772,1.124,1,1.822c0.227,0.698,0.34,1.449,0.34,2.252
		v6.986c0,0.251-0.059,0.439-0.178,0.565s-0.29,0.188-0.513,0.188h-1.593c-0.279,0-0.466-0.053-0.561-0.157
		c-0.094-0.104-0.141-0.29-0.141-0.555v-6.977c0-0.369-0.063-0.73-0.188-1.084c-0.126-0.353-0.31-0.668-0.551-0.947
		c-0.24-0.279-0.539-0.503-0.896-0.671c-0.355-0.167-0.768-0.251-1.235-0.251c-0.321,0-0.654,0.064-1,0.193
		c-0.346,0.13-0.662,0.313-0.948,0.55c-0.286,0.238-0.523,0.525-0.712,0.864s-0.287,0.722-0.294,1.147v6.787
		c0,0.133-0.007,0.266-0.021,0.397c-0.015,0.133-0.044,0.252-0.089,0.356c-0.046,0.104-0.11,0.188-0.194,0.251
		c-0.084,0.063-0.192,0.095-0.324,0.095h-1.729c-0.23,0-0.399-0.054-0.508-0.162s-0.162-0.264-0.162-0.467V62.996
		C236.922,62.898,236.963,62.794,237.047,62.683z"/>
	<path fill="#414042" d="M261.201,74.214c-0.615,0.524-1.287,0.937-2.017,1.236s-1.531,0.45-2.404,0.45
		c-0.942,0-1.836-0.178-2.681-0.534c-0.845-0.355-1.585-0.845-2.221-1.466c-0.636-0.622-1.14-1.35-1.514-2.185
		c-0.373-0.834-0.561-1.733-0.561-2.696c0-0.622,0.077-1.223,0.23-1.802c0.153-0.58,0.372-1.123,0.655-1.629
		c0.282-0.506,0.626-0.971,1.031-1.394c0.405-0.422,0.857-0.783,1.356-1.084c0.499-0.3,1.04-0.532,1.623-0.696s1.2-0.246,1.85-0.246
		c0.53,0,1.054,0.064,1.57,0.193c0.517,0.13,1.008,0.313,1.472,0.551c0.465,0.237,0.899,0.525,1.305,0.863
		c0.404,0.339,0.761,0.722,1.068,1.147c0.419,0.587,0.726,1.219,0.921,1.896c0.196,0.678,0.294,1.429,0.294,2.252
		c0,0.203-0.009,0.372-0.026,0.508c-0.018,0.137-0.062,0.246-0.131,0.33c-0.07,0.084-0.175,0.146-0.314,0.184
		s-0.335,0.058-0.586,0.058h-9.291c0.091,0.503,0.264,0.948,0.519,1.335c0.255,0.388,0.557,0.716,0.906,0.985
		c0.349,0.269,0.729,0.471,1.142,0.607c0.412,0.136,0.823,0.204,1.235,0.204c0.314,0,0.616-0.031,0.906-0.095
		c0.29-0.063,0.561-0.146,0.812-0.251c0.252-0.104,0.483-0.226,0.697-0.361c0.213-0.137,0.399-0.277,0.56-0.425
		c0-0.007,0.004-0.01,0.011-0.01c0.084-0.077,0.164-0.138,0.241-0.184c0.076-0.045,0.157-0.068,0.24-0.068
		c0.063,0,0.135,0.021,0.215,0.063s0.159,0.111,0.236,0.209c0.188,0.23,0.349,0.423,0.481,0.576s0.241,0.283,0.325,0.388
		c0.083,0.104,0.145,0.195,0.183,0.272s0.058,0.153,0.058,0.23C261.599,73.823,261.466,74.019,261.201,74.214z M256.551,64.767
		c-0.412,0-0.814,0.075-1.205,0.226c-0.391,0.149-0.749,0.354-1.073,0.612c-0.325,0.259-0.607,0.563-0.849,0.911
		c-0.241,0.35-0.417,0.727-0.529,1.132h7.416c-0.111-0.427-0.281-0.815-0.508-1.168c-0.228-0.353-0.501-0.656-0.822-0.911
		s-0.688-0.452-1.1-0.592C257.469,64.837,257.025,64.767,256.551,64.767z"/>
</g>
<path fill="#0C7797" d="M86.945,77.373c0,3.957-3.208,7.165-7.165,7.165H16.2c-3.957,0-7.165-3.208-7.165-7.165V13.792
	c0-3.957,3.208-7.165,7.165-7.165h63.581c3.957,0,7.165,3.208,7.165,7.165V77.373z"/>
<g>
	<line fill="none" stroke="#FFFFFF" stroke-width="3.7959" stroke-miterlimit="10" x1="48" y1="47.428" x2="48" y2="27.041"/>
	<line fill="none" stroke="#FFFFFF" stroke-width="3.7959" stroke-miterlimit="10" x1="48" y1="47.074" x2="67.2" y2="66.274"/>
	<line fill="none" stroke="#FFFFFF" stroke-width="3.7959" stroke-miterlimit="10" x1="48" y1="47.045" x2="28.799" y2="66.245"/>
</g>
<g>
	<path fill="#FFFFFF" d="M45.667,19.592c0.093,0.077,0.212,0.18,0.358,0.309c0.145,0.129,0.311,0.256,0.498,0.382
		c0.279,0.187,0.556,0.332,0.831,0.436c0.274,0.104,0.562,0.156,0.863,0.156c0.28,0,0.514-0.032,0.704-0.095
		c0.189-0.063,0.338-0.146,0.448-0.25c0.109-0.104,0.188-0.225,0.234-0.362c0.047-0.137,0.07-0.282,0.07-0.436
		c0-0.169-0.065-0.321-0.193-0.456c-0.129-0.134-0.287-0.253-0.473-0.357c-0.186-0.104-0.381-0.193-0.584-0.267
		c-0.203-0.074-0.378-0.136-0.526-0.186c-0.658-0.229-1.234-0.478-1.728-0.743c-0.493-0.266-0.905-0.562-1.233-0.888
		c-0.329-0.326-0.576-0.685-0.74-1.076s-0.247-0.829-0.247-1.311c0-0.509,0.103-0.973,0.309-1.389
		c0.206-0.416,0.499-0.772,0.88-1.068c0.381-0.296,0.84-0.524,1.377-0.686c0.537-0.162,1.138-0.243,1.801-0.243
		c0.499,0,0.978,0.056,1.436,0.168c0.458,0.113,0.909,0.292,1.353,0.539c0.187,0.11,0.363,0.224,0.531,0.341
		c0.167,0.118,0.313,0.231,0.44,0.341c0.126,0.11,0.226,0.214,0.3,0.313c0.074,0.099,0.111,0.184,0.111,0.255
		s-0.018,0.137-0.053,0.197c-0.036,0.061-0.089,0.129-0.161,0.206l-1.258,1.34c-0.093,0.093-0.187,0.14-0.28,0.14
		c-0.077,0-0.146-0.022-0.209-0.065c-0.063-0.044-0.133-0.099-0.21-0.165l-0.074-0.065c-0.11-0.093-0.232-0.189-0.366-0.288
		c-0.134-0.099-0.278-0.188-0.432-0.268s-0.315-0.146-0.485-0.197c-0.17-0.052-0.342-0.079-0.518-0.079
		c-0.181,0-0.351,0.016-0.51,0.045c-0.159,0.03-0.299,0.079-0.419,0.144c-0.121,0.066-0.217,0.152-0.288,0.259
		s-0.107,0.237-0.107,0.391s0.039,0.287,0.115,0.398c0.077,0.113,0.192,0.217,0.346,0.313c0.153,0.096,0.344,0.186,0.571,0.271
		c0.228,0.085,0.492,0.177,0.794,0.275c0.581,0.192,1.117,0.394,1.608,0.604c0.49,0.211,0.914,0.46,1.271,0.749
		c0.356,0.288,0.634,0.632,0.834,1.032c0.2,0.4,0.3,0.886,0.3,1.456c0,0.603-0.123,1.15-0.37,1.641
		c-0.247,0.491-0.585,0.909-1.016,1.254c-0.43,0.346-0.936,0.613-1.518,0.802c-0.581,0.189-1.206,0.284-1.875,0.284
		c-0.63,0-1.25-0.113-1.858-0.338c-0.609-0.225-1.176-0.527-1.703-0.907c-0.219-0.16-0.404-0.316-0.555-0.47
		s-0.27-0.277-0.358-0.371l-0.024-0.025c-0.005-0.011-0.011-0.018-0.017-0.021c-0.005-0.002-0.011-0.007-0.017-0.012
		c-0.005-0.011-0.011-0.018-0.016-0.021c-0.006-0.003-0.011-0.007-0.017-0.012c-0.126-0.138-0.189-0.248-0.189-0.33
		c0-0.094,0.063-0.198,0.189-0.313l1.423-1.357c0.115-0.083,0.208-0.124,0.28-0.124c0.049,0,0.101,0.017,0.156,0.049
		C45.524,19.477,45.59,19.526,45.667,19.592z"/>
</g>
<g>
	<path fill="#FFFFFF" d="M25.309,68.334c0.093,0.055,0.162,0.126,0.206,0.214s0.036,0.192-0.025,0.313l-1.39,1.974
		c-0.061,0.094-0.125,0.146-0.193,0.16c-0.069,0.014-0.152-0.009-0.251-0.069c-0.269-0.203-0.565-0.359-0.888-0.469
		c-0.324-0.109-0.666-0.165-1.028-0.165c-0.45,0-0.864,0.086-1.242,0.256s-0.705,0.402-0.979,0.698
		c-0.274,0.296-0.488,0.642-0.642,1.037c-0.153,0.395-0.23,0.816-0.23,1.267c0,0.449,0.077,0.87,0.23,1.262
		c0.153,0.393,0.367,0.735,0.642,1.028c0.274,0.293,0.6,0.525,0.979,0.695s0.792,0.255,1.242,0.255c0.362,0,0.707-0.057,1.036-0.169
		s0.628-0.27,0.896-0.473c0.099-0.061,0.181-0.085,0.247-0.074s0.132,0.061,0.198,0.147l1.406,2.023
		c0.06,0.121,0.068,0.222,0.024,0.305c-0.044,0.082-0.112,0.15-0.206,0.205c-0.515,0.346-1.07,0.613-1.666,0.802
		c-0.595,0.189-1.221,0.284-1.879,0.284c-0.582,0-1.139-0.074-1.674-0.222c-0.535-0.148-1.035-0.359-1.501-0.634
		s-0.89-0.602-1.271-0.982c-0.381-0.381-0.708-0.804-0.982-1.267c-0.274-0.464-0.485-0.963-0.633-1.497s-0.222-1.093-0.222-1.674
		s0.074-1.139,0.222-1.674c0.148-0.534,0.359-1.036,0.633-1.505c0.274-0.469,0.602-0.895,0.982-1.278
		c0.381-0.384,0.805-0.712,1.271-0.983s0.966-0.482,1.501-0.633c0.535-0.151,1.092-0.227,1.674-0.227
		c0.658,0,1.279,0.092,1.863,0.275C24.243,67.725,24.793,67.988,25.309,68.334z"/>
</g>
<g>
	<path fill="#FFFFFF" d="M68.633,73.564c0-0.581,0.074-1.139,0.222-1.674c0.148-0.534,0.359-1.036,0.634-1.505
		s0.602-0.895,0.983-1.278s0.805-0.712,1.271-0.983s0.967-0.482,1.502-0.633c0.535-0.151,1.093-0.227,1.675-0.227
		c0.576,0,1.133,0.075,1.671,0.227c0.538,0.15,1.04,0.361,1.506,0.633s0.892,0.6,1.276,0.983c0.384,0.384,0.712,0.81,0.983,1.278
		s0.483,0.971,0.634,1.505c0.151,0.535,0.226,1.093,0.226,1.674s-0.075,1.14-0.226,1.674s-0.362,1.033-0.634,1.497
		c-0.271,0.463-0.6,0.886-0.983,1.267c-0.384,0.381-0.81,0.708-1.276,0.982s-0.968,0.485-1.506,0.634
		c-0.538,0.147-1.095,0.222-1.671,0.222c-0.582,0-1.14-0.074-1.675-0.222c-0.535-0.148-1.036-0.359-1.502-0.634
		s-0.89-0.602-1.271-0.982s-0.709-0.804-0.983-1.267c-0.274-0.464-0.485-0.963-0.634-1.497
		C68.708,74.704,68.633,74.146,68.633,73.564z M71.816,73.557c0,0.455,0.077,0.88,0.23,1.274s0.368,0.739,0.645,1.032
		c0.277,0.294,0.604,0.523,0.981,0.69c0.378,0.168,0.794,0.251,1.249,0.251s0.872-0.083,1.252-0.251
		c0.381-0.167,0.709-0.396,0.986-0.69c0.276-0.293,0.491-0.638,0.645-1.032c0.153-0.395,0.23-0.819,0.23-1.274
		c0-0.449-0.077-0.873-0.23-1.271c-0.154-0.396-0.369-0.744-0.645-1.04s-0.605-0.528-0.986-0.698
		c-0.38-0.17-0.798-0.256-1.252-0.256s-0.871,0.086-1.249,0.256c-0.377,0.17-0.705,0.402-0.981,0.698
		c-0.276,0.296-0.491,0.644-0.645,1.04C71.893,72.684,71.816,73.107,71.816,73.557z"/>
</g>
</svg>
